PathFileType	4	(X/Y/Z)	C:\Users\Public\Documents\Vicon Data\AADs Machine\Frameless Spring Test\Dec182020\10lbsSpring1.trc
DataRate	CameraRate	NumFrames	NumMarkers	Units	OrigDataRate	OrigDataStartFrame	OrigNumFrames
100.0	100.0	37	9	mm	100.0	261	1041	
Frame#	Time	Heel			MP5			Toe			MMAL			LMAL			Shank			SpringTop			LateralKnee			MedialKnee			
		X1	Y1	Z1	X2	Y2	Z2	X3	Y3	Z3	X4	Y4	Z4	X5	Y5	Z5	X6	Y6	Z6	X7	Y7	Z7	X8	Y8	Z8	X9	Y9	Z9	
261	2.6	-192.45041	46.374756	-770.42194	-239.21342	37.881618	-598.70288	-172.04677	38.971272	-529.39709	-119.82114	111.93259	-710.22858	-242.22331	117.91805	-703.1792	-168.40555	275.45444	-647.09882	-188.92699	188.29378	-759.84967	-208.1279	471.52759	-718.45251	-132.70782	469.30734	-715.83832
262	2.61	-192.39438	46.414856	-770.42773	-239.16368	37.924988	-598.71222	-172.00279	38.988232	-529.41382	-120.09568	111.65011	-710.26355	-242.1998	117.95646	-703.24359	-168.20982	275.54379	-647.31818	-188.81686	188.24452	-759.94067	-207.8073	471.58301	-718.81744	-132.23836	469.40497	-716.1593
263	2.62	-192.39554	46.32486	-770.45917	-239.1245	37.955204	-598.73627	-171.95409	38.993694	-529.41412	-119.7225	111.78384	-710.28589	-242.04858	117.83563	-703.40723	-168.02766	275.57904	-647.48456	-188.77885	188.08304	-760.06158	-208.09425	471.98828	-719.38721	-132.03587	469.30035	-716.58893
264	2.63	-192.39424	46.349823	-770.42242	-239.12506	38.000359	-598.73773	-171.95737	39.002052	-529.4231	-119.67336	111.83987	-710.29956	-242.07675	117.96749	-703.31689	-167.88864	275.61017	-647.66528	-188.66965	188.0697	-760.12067	-208.4678	472.62256	-718.45404	-132.13326	469.02063	-717.12756
265	2.64	-192.35182	46.357216	-770.4458	-239.08136	38.040062	-598.76489	-171.92406	39.032764	-529.43805	-120.15382	111.43256	-710.38446	-242.03195	117.97791	-703.34814	-167.78926	275.70358	-647.83453	-188.58044	188.01404	-760.23529	-207.16417	471.39957	-720.2113	-131.97791	469.04962	-717.43701
266	2.65	-192.35043	46.331249	-770.43445	-239.08354	38.013702	-598.77026	-171.92311	39.016167	-529.42145	-119.96167	111.49462	-710.37427	-241.99467	117.94168	-703.39905	-167.7122	275.7269	-647.93494	-188.59132	187.94255	-760.2821	-207.07733	471.33459	-720.57715	-131.93288	468.96567	-717.76593
267	2.66	-192.36328	46.289299	-770.45056	-239.08005	38.021927	-598.75714	-171.90242	39.002743	-529.44061	-119.63679	111.73904	-710.33008	-241.95956	117.86694	-703.46216	-167.73132	275.74268	-648.04138	-188.59862	187.84854	-760.35779	-207.07655	471.21051	-720.95343	-131.82443	469.09677	-718.02295
268	2.67	-192.35991	46.338551	-770.42084	-239.10286	38.044338	-598.75592	-171.95024	39.039684	-529.42401	-119.69926	111.74958	-710.34833	-242.08376	118.01407	-703.31738	-167.81111	275.82175	-648.10809	-188.63885	187.92738	-760.38257	-207.20927	471.21951	-721.19055	-131.91182	469.13605	-718.1731
269	2.68	-192.37901	46.340961	-770.45184	-239.13768	37.989548	-598.7605	-171.93279	39.009956	-529.44305	-120.00731	111.52921	-710.39087	-242.06841	117.93113	-703.36218	-167.91118	275.82639	-648.16644	-188.6879	187.88168	-760.43494	-207.40213	471.14682	-721.3158	-132.18584	469.03989	-718.31238
270	2.69	-192.40469	46.314617	-770.45819	-239.12753	37.940044	-598.75226	-171.93767	38.994911	-529.44519	-119.59586	111.84229	-710.29053	-242.1114	117.85511	-703.39258	-168.08034	275.8306	-648.13556	-188.78548	187.82472	-760.4104	-207.66933	471.07025	-721.34863	-132.42523	469.06485	-718.31201
271	2.7	-192.46684	46.31654	-770.44055	-239.20665	37.901245	-598.7403	-172.03882	38.973625	-529.42737	-119.693	111.92752	-710.26526	-242.21004	117.81955	-703.30365	-168.45474	275.81003	-648.06787	-188.94395	187.89052	-760.34448	-208.32204	471.08038	-721.10004	-132.81969	469.17245	-718.15228
272	2.71	-192.46761	46.369591	-770.43671	-239.21669	37.877514	-598.75262	-172.07104	38.993782	-529.42157	-120.28006	111.7142	-710.27032	-242.30099	117.8557	-703.23358	-168.83675	275.8111	-647.95697	-189.13753	188.01305	-760.24237	-208.89633	471.13599	-720.74011	-133.21054	469.4133	-717.82208
273	2.72	-192.49393	46.346302	-770.46539	-239.2068	37.825344	-598.77222	-172.05513	38.976246	-529.42059	-120.40232	111.71872	-710.21997	-242.3824	117.70428	-703.29633	-169.22461	275.75745	-647.7406	-189.27524	188.00658	-760.20135	-209.34814	471.00119	-720.52393	-133.68846	469.56134	-717.48987
274	2.73	-192.59082	46.376804	-770.48547	-239.28343	37.755547	-598.75366	-172.09683	38.938957	-529.41595	-120.61872	111.75473	-710.13489	-242.53539	117.65383	-703.24213	-169.59412	275.70959	-647.52618	-189.43977	188.09676	-760.1239	-209.80473	470.97842	-720.06281	-134.22552	469.60577	-717.13672
275	2.74	-192.75003	46.426941	-770.38434	-239.32172	37.808292	-598.71216	-172.11838	38.997437	-529.38818	-120.81141	111.88561	-710.05725	-242.65863	117.69762	-703.16119	-169.8112	275.74026	-647.32666	-189.59175	188.24129	-759.9978	-210.07088	470.95435	-719.84253	-134.58044	469.76498	-716.87878
276	2.75	-192.84973	46.322495	-770.37427	-239.3058	37.737331	-598.70691	-172.08879	38.950264	-529.40088	-120.87321	111.86018	-710.07697	-242.71732	117.60659	-703.17236	-169.91267	275.66833	-647.23541	-189.68036	188.23018	-759.96454	-210.21773	471.009	-719.53943	-134.74318	469.75006	-716.68933
277	2.76	-192.97214	46.428307	-770.40747	-239.32034	37.713543	-598.68658	-172.05286	38.931892	-529.39825	-120.94898	111.82967	-710.06885	-242.78526	117.60107	-703.11603	-169.90984	275.64703	-647.17529	-189.76723	188.26236	-759.9187	-210.25113	471.04346	-719.24707	-134.79373	469.76544	-716.57013
278	2.77	-193.03619	46.421089	-770.3457	-239.32103	37.762844	-598.6629	-172.08354	38.95293	-529.37964	-120.92675	111.84432	-710.0816	-242.76851	117.65499	-702.98895	-169.89944	275.68277	-647.13153	-189.72937	188.29922	-759.9212	-210.31203	471.16925	-719.05481	-134.73543	469.75757	-716.50464
279	2.78	-193.02567	46.371387	-770.2901	-239.31177	37.768108	-598.66583	-172.03264	38.94101	-529.3833	-120.85912	111.8174	-710.08984	-242.7092	117.64944	-703.08447	-169.70407	275.68951	-647.1355	-189.70903	188.25299	-759.90405	-210.08206	471.11948	-719.159	-134.53809	469.78259	-716.61328
280	2.79	-192.93372	46.352184	-770.38019	-239.30217	37.766666	-598.65155	-172.02362	38.937595	-529.37787	-120.78791	111.77238	-710.11719	-242.63235	117.65148	-703.06598	-169.56039	275.67426	-647.2215	-189.65251	188.19589	-759.94122	-209.88774	471.15289	-719.16577	-134.32303	469.70114	-716.71277
281	2.8	-192.94495	46.399269	-770.39093	-239.29112	37.757477	-598.66425	-172.01923	38.938938	-529.39789	-120.72147	111.72906	-710.15582	-242.68199	117.70513	-703.03613	-169.45667	275.6618	-647.29431	-189.58698	188.1821	-759.96301	-209.76305	471.21149	-719.21765	-134.08409	469.7485	-716.93829
282	2.81	-192.88002	46.319397	-770.36267	-239.29483	37.801559	-598.66119	-172.00267	38.963436	-529.39594	-120.64015	111.72346	-710.17255	-242.60789	117.73669	-703.03546	-169.32988	275.69034	-647.36792	-189.51694	188.17366	-760.00916	-209.54222	471.26202	-719.34308	-133.92908	469.67996	-717.01825
283	2.82	-192.85399	46.279907	-770.35712	-239.28043	37.832561	-598.6322	-172.01091	38.983265	-529.35358	-120.5974	111.69651	-710.21326	-242.57863	117.70191	-703.12878	-169.25658	275.70691	-647.40265	-189.54605	188.12601	-760.02069	-209.40636	471.22012	-719.44464	-133.76901	469.65601	-717.12726
284	2.83	-192.90752	46.358616	-770.35553	-239.29793	37.79443	-598.64929	-171.99419	38.956577	-529.39014	-120.66458	111.66387	-710.16724	-242.59612	117.73269	-703.06689	-169.26338	275.67221	-647.40015	-189.50383	188.13658	-760.01117	-209.41426	471.19385	-719.50586	-133.76974	469.62997	-717.14856
285	2.84	-192.93352	46.399109	-770.35333	-239.27647	37.800312	-598.68384	-172.00769	38.949833	-529.42889	-120.64448	111.69359	-710.2019	-242.60843	117.80258	-702.99573	-169.29488	275.66904	-647.39331	-189.49362	188.17796	-760.01782	-209.47502	471.2258	-719.38806	-133.84474	469.65146	-717.04034
286	2.85	-192.90192	46.352806	-770.37201	-239.2897	37.795456	-598.65894	-172.00339	38.950535	-529.40729	-120.68697	111.72761	-710.22406	-242.58176	117.69817	-703.14661	-169.35504	275.67856	-647.30499	-189.5276	188.19156	-759.99255	-209.537	471.18539	-719.33569	-133.94621	469.67969	-716.92517
287	2.86	-192.93361	46.343235	-770.36975	-239.28116	37.782291	-598.66058	-171.99097	38.936337	-529.401	-120.71221	111.69198	-710.17029	-242.57713	117.60618	-703.1701	-169.40227	275.62564	-647.20862	-189.56207	188.13838	-759.93488	-209.64186	471.27765	-718.92297	-134.06943	469.66254	-716.68304
288	2.87	-192.96143	46.422291	-770.3064	-239.30147	37.778614	-598.65533	-172.02625	38.952187	-529.41327	-120.83997	111.72997	-710.07343	-242.69226	117.74176	-702.96301	-169.4635	275.61444	-647.11328	-189.58562	188.29941	-759.82916	-209.62468	470.71182	-720.06812	-134.18681	469.63602	-716.45001
289	2.88	-192.91692	46.366894	-770.36206	-239.28178	37.762314	-598.65625	-172.00948	38.935333	-529.40131	-120.78107	111.73576	-710.07764	-242.65742	117.72831	-703.00116	-169.41574	275.59558	-647.04865	-189.54953	188.28677	-759.84967	-209.67801	471.13263	-718.99597	-134.39128	469.39923	-716.31836
290	2.89	-192.93448	46.305706	-770.33777	-239.25343	37.741909	-598.67377	-171.97444	38.915028	-529.40112	-120.76812	111.68306	-710.12531	-242.60777	117.62537	-703.05701	-169.37102	275.53497	-646.99084	-189.58266	188.20795	-759.79102	-209.56989	471.06329	-718.94543	-134.34273	469.37503	-716.18878
291	2.9	-192.99562	46.398056	-770.3454	-239.28989	37.759762	-598.67529	-172.01582	38.922958	-529.4043	-120.81922	111.68464	-710.09711	-242.65462	117.72638	-702.90216	-169.34258	275.55637	-646.96082	-189.56976	188.29897	-759.79205	-209.53096	471.10965	-718.80847	-134.32082	469.37769	-716.14789
292	2.91	-192.90231	46.470783	-770.35852	-239.25583	37.806622	-598.67096	-172.00244	38.95314	-529.41235	-120.73769	111.75821	-710.09149	-242.64934	117.84774	-702.85822	-169.26585	275.5654	-646.94183	-189.49373	188.37782	-759.76874	-209.4339	471.20264	-718.7207	-134.21175	469.33783	-716.15875
293	2.92	-192.87444	46.307114	-770.39575	-239.24388	37.745579	-598.69623	-171.98027	38.89436	-529.43066	-120.62705	111.65362	-710.18323	-242.55447	117.66749	-703.10461	-169.19856	275.50626	-646.99902	-189.50055	188.19434	-759.83551	-209.38594	471.21448	-718.65869	-134.14172	469.26587	-716.18195
294	2.93	-192.93277	46.342335	-770.36957	-239.27315	37.766338	-598.67676	-171.97168	38.907204	-529.42114	-120.69056	111.64413	-710.14532	-242.55727	117.64749	-703.09216	-169.18094	275.51007	-647.00024	-189.48093	188.24237	-759.79559	-209.32349	471.21365	-718.64606	-134.10265	469.27893	-716.18304
295	2.94	-192.89873	46.412029	-770.37427	-239.24451	37.790638	-598.69238	-171.99089	38.945129	-529.41339	-120.67905	111.70202	-710.11279	-242.57904	117.84554	-702.87903	-169.16182	275.54538	-647.01672	-189.41084	188.33862	-759.80054	-209.30592	471.2883	-718.64307	-134.12129	469.28955	-716.20825
296	2.95	-192.85707	46.298302	-770.34161	-239.24869	37.747879	-598.71295	-171.98672	38.901558	-529.42365	-120.65014	111.65761	-710.18384	-242.60246	117.75076	-703.02405	-169.18642	275.50986	-647.04877	-189.4503	188.2621	-759.8186	-209.35982	471.30591	-718.63586	-134.09442	469.27298	-716.20557
297	2.96	-192.87207	46.256802	-770.34943	-239.25215	37.744354	-598.69562	-171.99039	38.905247	-529.40125	-120.65303	111.62753	-710.18195	-242.56442	117.64606	-703.11108	-169.21135	275.52951	-647.02747	-189.5258	188.20103	-759.82983	-209.37978	471.20016	-718.70691	-134.15305	469.28891	-716.23846
